<svg xmlns="http://www.w3.org/2000/svg" width="17" height="19" viewBox="0 0 17 19" fill="none">
    <path fillRule="evenodd" clipRule="evenodd" d="M10.7615 0.436547C10.0606 0.154725 9.29709 0 8.50043 0C5.4096 0 2.81246 2.32366 2.47169 5.39607L2.23959 7.48302L2.23408 7.53276C2.13001 8.43809 1.83527 9.31209 1.36925 10.0949L1.34348 10.1382L0.811145 11.0251L0.789025 11.062C0.566146 11.4331 0.364462 11.7684 0.230918 12.0539C0.0936915 12.3431 -0.0518411 12.7363 0.0181539 13.1812C0.0881489 13.6205 0.313806 14.0202 0.655492 14.3066C1.00086 14.5958 1.41254 14.6722 1.7312 14.7045C2.04434 14.7358 2.43667 14.7358 2.86861 14.7358H2.91189H14.0881H14.1314C14.5642 14.7358 14.9556 14.7358 15.2688 14.7045C15.5874 14.6722 15.9991 14.5958 16.3445 14.3066C16.6862 14.0202 16.9128 13.6205 16.9818 13.1812C17.0518 12.7363 16.9063 12.3431 16.77 12.0539C16.6355 11.7684 16.4339 11.4331 16.2119 11.062L16.1898 11.0251L15.6565 10.1382L15.6317 10.0949C15.2826 9.50918 15.0293 8.87279 14.8811 8.20968C14.6038 8.26125 14.3183 8.28888 14.0264 8.28888C13.6727 8.28888 13.3282 8.24928 12.9976 8.17376C13.1671 9.18316 13.5235 10.1548 14.0485 11.0371L14.0771 11.0859L14.6103 11.9728C14.8617 12.3928 15.0137 12.6479 15.103 12.8386C15.1085 12.8487 15.1131 12.8588 15.1168 12.868C15.1067 12.8689 15.0966 12.8708 15.0846 12.8717C14.8746 12.8929 14.578 12.8938 14.0881 12.8938H2.91189C2.42193 12.8938 2.1254 12.8929 1.91541 12.8717C1.90436 12.8708 1.89331 12.8689 1.88317 12.868C1.88778 12.8588 1.89237 12.8487 1.89697 12.8386C1.98631 12.6479 2.13828 12.3928 2.39063 11.9728L2.92297 11.0859L2.95152 11.0371C3.55108 10.0296 3.93054 8.90685 4.06408 7.74272L4.07049 7.68656L4.30169 5.59961C4.53931 3.46016 6.34809 1.84197 8.50043 1.84197C8.92685 1.84197 9.33949 1.90552 9.72907 2.02433C9.96116 1.42384 10.3157 0.884146 10.7615 0.436547ZM13.0888 2.09802C12.5472 2.41852 12.1844 3.00886 12.1844 3.68395C12.1844 3.81749 12.1982 3.94732 12.2249 4.0735C12.3363 4.28072 12.4303 4.4981 12.5058 4.72467C12.8383 5.20818 13.3946 5.52592 14.0264 5.52592C14.2032 5.52592 14.3736 5.50103 14.5357 5.45498L14.5292 5.39607C14.3883 4.13432 13.8679 2.99875 13.0888 2.09802Z" fill="#A85236" />
    <path d="M5.83057 14.4275C5.98806 15.3089 6.33529 16.0871 6.81788 16.6425C7.30048 17.1978 7.89174 17.499 8.4996 17.499C9.10745 17.499 9.69871 17.1978 10.1813 16.6425C10.6639 16.0871 11.0111 15.3089 11.1686 14.4275" stroke="#A85236" strokeWidth="2" strokeLinecap="round" />
    <path d="M14.0255 5.98677C15.2971 5.98677 16.328 4.95592 16.328 3.6843C16.328 2.41269 15.2971 1.38184 14.0255 1.38184C12.7539 1.38184 11.723 2.41269 11.723 3.6843C11.723 4.95592 12.7539 5.98677 14.0255 5.98677Z" fill="#66A682" stroke="#66A682" />
</svg>