<svg xmlns="http://www.w3.org/2000/svg" width="17" height="19" viewBox="0 0 17 19" fill="none">
    <path fillRule="evenodd" clipRule="evenodd" d="M8.50043 0C5.4096 0 2.81246 2.32366 2.47169 5.39607L2.23959 7.48302L2.23408 7.53276C2.13001 8.43809 1.83527 9.31209 1.36925 10.0949L1.34348 10.1382L0.811145 11.0251L0.789025 11.062C0.566146 11.4331 0.364462 11.7684 0.230918 12.0539C0.0936915 12.3431 -0.0518411 12.7363 0.0181539 13.1812C0.0881489 13.6205 0.313806 14.0202 0.655492 14.3066C1.00086 14.5958 1.41254 14.6722 1.7312 14.7045C2.04434 14.7358 2.43667 14.7358 2.86861 14.7358H14.1314C14.5642 14.7358 14.9556 14.7358 15.2688 14.7045C15.5874 14.6722 15.9991 14.5958 16.3445 14.3066C16.6862 14.0202 16.9128 13.6205 16.9818 13.1812C17.0518 12.7363 16.9063 12.3431 16.77 12.0539C16.6355 11.7684 16.4339 11.4331 16.2119 11.062L16.1898 11.0251L15.6565 10.1382L15.6317 10.0949C15.1657 9.31209 14.87 8.43809 14.7659 7.53276L14.7604 7.48302L14.5283 5.39607C14.1876 2.32366 11.5904 0 8.50043 0ZM4.30169 5.59961C4.53931 3.46016 6.34809 1.84197 8.50043 1.84197C10.6528 1.84197 12.4616 3.46016 12.6992 5.59961L12.9304 7.68656C13.0639 8.90685 13.4434 10.0296 14.0429 11.0371L14.0715 11.0859L14.6047 11.9728C14.8561 12.3928 15.0081 12.6479 15.0974 12.8386L15.1112 12.868C15.1011 12.8689 15.091 12.8708 15.079 12.8717C14.869 12.8929 14.5724 12.8938 14.0825 12.8938H2.91189C2.42193 12.8938 2.1254 12.8929 1.91541 12.8717C1.90436 12.8708 1.89331 12.8689 1.88317 12.868L1.89697 12.8386C1.98631 12.6479 2.13828 12.3928 2.39063 11.9728L2.92297 11.0859L2.95152 11.0371C3.55108 10.0296 3.93054 8.90685 4.06408 7.68656L4.30169 5.59961Z" fill="#A85236" />
    <path d="M5.83057 14.4275C5.98806 15.3089 6.33529 16.0871 6.81788 16.6425C7.30048 17.1978 7.89174 17.499 8.4996 17.499C9.10745 17.499 9.69871 17.1978 10.1813 16.6425C10.6639 16.0871 11.0111 15.3089 11.1686 14.4275" stroke="#A85236" strokeWidth="2" strokeLinecap="round" />
</svg>