<svg xmlns="http://www.w3.org/2000/svg" width="18" height="19" viewBox="0 0 18 19" fill="none">
<path d="M7 13V10" stroke="#A85236" stroke-width="2" stroke-linecap="round"/>
<path d="M11 13V10" stroke="#A85236" stroke-width="2" stroke-linecap="round"/>
<path d="M0 5H18C17.07 5 16.6 4.99998 16.23 5.15198C15.74 5.35498 15.36 5.74499 15.15 6.23499C15 6.60199 15 7.068 15 8V14C15 15.886 15 16.828 14.41 17.414C13.83 18 12.89 18 11 18H7C5.11 18 4.16997 18 3.58997 17.414C2.99997 16.828 3 15.886 3 14V8C3 7.068 2.99998 6.60199 2.84998 6.23499C2.63998 5.74499 2.26002 5.35498 1.77002 5.15198C1.40002 4.99998 0.93 5 0 5Z" stroke="#A85236" stroke-width="2" stroke-linecap="round"/>
<path d="M7.07031 1.37097C7.18031 1.26397 7.4304 1.17003 7.7804 1.10303C8.1304 1.03603 8.56037 1 9.00037 1C9.44037 1 9.87034 1.03603 10.2203 1.10303C10.5703 1.17003 10.8204 1.26397 10.9304 1.37097" stroke="#A85236" stroke-width="2" stroke-linecap="round"/>
</svg>
